Coordinates
version=1
nRows=17
nColumns=36
inDegrees=yes

Units are S.I. units (second, meters, Newtons, ...)
If the header above contains a line with 'inDegrees', this indicates whether rotational values are in degrees (yes) or radians (no).

endheader
time	pelvis_tilt	pelvis_list	pelvis_rotation	pelvis_tx	pelvis_ty	pelvis_tz	hip_flexion_r	hip_adduction_r	hip_rotation_r	knee_angle_r	knee_angle_r_beta	ankle_angle_r	subtalar_angle_r	mtp_angle_r	hip_flexion_l	hip_adduction_l	hip_rotation_l	knee_angle_l	knee_angle_l_beta	ankle_angle_l	subtalar_angle_l	mtp_angle_l	lumbar_extension	lumbar_bending	lumbar_rotation	arm_flex_r	arm_add_r	arm_rot_r	elbow_flex_r	pro_sup_r	arm_flex_l	arm_add_l	arm_rot_l	elbow_flex_l	pro_sup_l
      5.01666670	     -6.52165321	     -3.00350957	      4.03025818	     -0.17728748	      0.94523398	      0.25255267	      3.56854459	     -1.68485795	      2.95010727	      2.58845471	      0.04517706	     13.54419494	      0.64100599	     -7.49999987	      6.38831441	    -13.07184682	     -3.54943360	      4.61675979	      0.08057766	     13.98207343	      8.61706871	     -7.49999987	     21.15965875	      3.31369106	     -2.61124248	    -21.89176777	    -25.63834705	     10.13884162	     56.52840546	     72.44123257	    -14.12869453	    -13.18694573	     15.90849808	     28.27239763	     73.60193315
      5.03333330	     -6.66593160	     -3.11308169	      4.21633070	     -0.18438627	      0.94412381	      0.25657802	      3.65550319	     -1.52626318	      2.94000590	      2.44294864	      0.04263750	     13.66080708	      0.52474411	     -7.49999987	      6.88266416	    -13.23007512	     -3.46215492	      4.96642583	      0.08668048	     14.21782539	      8.69049046	     -7.49999987	     21.69242665	      3.14239550	     -1.85979454	    -21.30262175	    -24.71568322	     10.42789969	     49.89896966	     72.09011441	    -13.91804552	    -13.34713522	     15.04019397	     24.38379113	     73.10406793
      5.05000000	     -6.62628139	     -3.18123935	      4.29280401	     -0.18313954	      0.94468117	      0.25682171	      3.56253313	     -1.39658740	      3.01339866	      2.38675421	      0.04165672	     13.79147189	      0.43025694	     -7.49999987	      7.05275675	    -13.37436389	     -3.54928763	      5.18305300	      0.09046134	     14.27800807	      8.83646074	     -7.49999987	     21.95645674	      2.86909714	     -2.48090186	    -18.72100507	    -24.66614255	     14.71034064	     42.59582913	     69.71291609	    -14.66421111	    -12.95263110	     12.57445105	     20.25709762	     69.90554329
      5.06666670	     -6.77848657	     -3.25204966	      4.56165121	     -0.17873158	      0.94873439	      0.25084302	      3.60041738	     -1.33325397	      2.89930324	      2.20128182	      0.03841962	     13.83551643	      0.47251475	     -7.49999987	      7.39514356	    -13.42968537	     -3.42808049	      5.26989939	      0.09197710	     14.19237943	      8.87957362	     -7.49999987	     22.51090416	      2.80972253	     -1.48190414	    -18.77250558	    -23.71411741	     14.59289929	     36.56305241	     69.27736638	    -14.83741797	    -12.93129343	     11.41815557	     16.61889272	     69.36617721
      5.08333330	     -6.64616788	     -3.31462185	      4.88732910	     -0.17756587	      0.94924810	      0.25065535	      3.30564279	     -1.27098606	      2.51114998	      1.99382347	      0.03479878	     14.15224700	      1.02046648	     -7.49999987	      7.36517092	    -13.46266890	     -3.27241032	      5.25283199	      0.09167921	     14.14852720	      9.01970927	     -7.49999987	     22.65211554	      2.71589274	     -1.37693703	    -18.42925392	    -23.17382610	     14.94012111	     31.48154495	     68.66043935	    -15.26652527	    -12.87330955	      9.82119924	     13.51434592	     68.27932983
      5.10000000	     -6.82063332	     -3.30464163	      5.03935340	     -0.17315383	      0.94951320	      0.24524515	      3.31916823	     -1.33509717	      2.86946940	      1.80888996	      0.03157109	     14.05024274	      0.50049694	     -7.49999987	      7.50796402	    -13.36910461	     -3.28214082	      5.13571520	      0.08963514	     14.09427337	      9.15568266	     -7.49999987	     23.34679701	      2.65404548	     -0.79252018	    -18.69530221	    -22.68410827	     15.25115057	     26.62985004	     68.14148529	    -15.93610823	    -12.53917019	      7.54058912	     10.51150314	     66.95925087
      5.11666670	     -6.84003934	     -3.28676497	      5.25575596	     -0.17198260	      0.94969895	      0.24532699	      3.12738906	     -1.41347475	      2.79562998	      1.57470108	      0.02748372	     14.15576651	      0.61867552	     -7.49999987	      7.43373327	    -13.25311359	     -3.25225304	      4.93509511	      0.08613366	     13.92460050	      9.32851314	     -7.49999987	     23.90168763	      2.45422909	     -0.99570674	    -18.71952173	    -22.41788980	     16.31106377	     22.49937030	     66.17960045	    -17.68228241	    -12.04361147	      2.21645216	      9.04763913	     62.57826409
      5.13333330	     -6.85750361	     -3.22880886	      5.44807426	     -0.16770748	      0.95353616	      0.24004792	      2.91295355	     -1.57916739	      2.72319973	      1.39221554	      0.02429875	     14.25181231	      0.67912323	     -7.49999987	      7.23115421	    -13.06034988	     -3.13364797	      4.64379997	      0.08104960	     13.79734225	      9.50135082	     -7.49999987	     24.51719297	      2.38761861	     -0.57537907	    -19.38111866	    -21.90440579	     15.28733023	     18.65869844	     65.36764389	    -19.10048965	    -11.90286218	      0.45573423	      7.07277347	     61.13915080
      5.15000000	     -6.98488956	     -3.21044971	      5.58363783	     -0.17244850	      0.95273224	      0.23690392	      2.92092700	     -1.69911830	      2.70180731	      1.29321755	      0.02257090	     14.35505977	      0.72637592	     -7.49999987	      7.35012724	    -12.93695045	     -3.03460898	      4.60368263	      0.08034942	     13.84819121	      9.65795773	     -7.49999987	     25.15375882	      2.40455523	      0.17483192	    -20.18276975	    -21.52453297	     14.94572299	     15.98063481	     65.00606091	    -20.02024461	    -12.16222936	     -0.57143590	      6.31040666	     60.23680081
      5.16666670	     -7.02381268	     -3.13290966	      5.81255739	     -0.16837160	      0.95964064	      0.23150120	      2.78889590	     -1.92028674	      2.60587181	      1.18049510	      0.02060353	     14.37240360	      0.72733536	     -7.49999987	      7.29967306	    -12.69312628	     -2.87853121	      4.39107930	      0.07663879	     13.76595529	      9.81252178	     -7.49999987	     25.61267110	      2.27403247	      0.22530066	    -20.43459839	    -20.84853012	     13.37973371	     12.85000504	     63.98826637	    -21.14537870	    -12.09769133	     -3.40823225	      5.90634804	     56.57910872
      5.18333330	     -7.10411813	     -3.08924154	      5.94286738	     -0.16750109	      0.95920767	      0.23150087	      2.75177512	     -2.07477994	      2.55536401	      1.10433978	      0.01927437	     14.38109257	      0.71563839	     -7.49999987	      7.31726688	    -12.51480085	     -2.76192289	      4.27672583	      0.07464295	     13.70397065	      9.93051474	     -7.49999987	     26.10417580	      2.18568467	      0.53599267	    -20.32570084	    -20.18065598	     13.12000216	     10.17860802	     62.82791332	    -21.91124422	    -12.36438816	     -4.49153313	      5.31207878	     55.98120593
      5.20000000	     -7.15216691	     -3.02731023	      5.97710443	     -0.16864551	      0.95865134	      0.23090315	      2.69767049	     -2.23163565	      2.38817332	      1.01433806	      0.01770354	     14.42462367	      0.93490944	     -7.49999987	      7.25521121	    -12.32984251	     -2.66534107	      4.11956999	      0.07190006	     13.71316113	      9.95054520	     -7.49999987	     26.53250344	      2.10967482	      0.84662067	    -19.93197507	    -19.49174610	     12.45113176	      7.70040307	     62.22097661	    -22.48903625	    -12.73364097	     -5.74411918	      4.64429891	     55.32509421
      5.21666670	     -7.22717123	     -3.02039148	      5.98636852	     -0.17337605	      0.95757627	      0.22775907	      2.73728718	     -2.32449097	      2.44729344	      0.96041287	      0.01676237	     14.33037151	      0.84011000	     -7.49999987	      7.30163805	    -12.22190088	     -2.66337057	      4.05179897	      0.07071723	     13.68045907	     10.09178709	     -7.49999987	     26.88253634	      2.09845322	      1.38954560	    -19.47574259	    -18.93589112	     12.32686971	      6.22366548	     62.41479136	    -22.58588783	    -13.26672655	     -5.93666158	      4.22731190	     54.95907582
      5.23333330	     -7.22725059	     -2.93120025	      5.92532042	     -0.16909813	      0.95460292	      0.22225894	      2.67353493	     -2.52654733	      2.40285181	      0.90256643	      0.01575276	     14.21251343	      0.89710538	     -7.49999987	      7.17131758	    -11.99912171	     -2.67671107	      3.96713136	      0.06923950	     13.80472099	     10.08116059	     -7.49999987	     27.11613818	      1.99323187	      1.76816794	    -19.03746093	    -18.84223531	     12.29827228	      6.08067070	     62.46508595	    -22.98299300	    -13.66161895	     -6.04844676	      3.94980676	     54.85356758
      5.25000000	     -7.29483590	     -2.81669832	      5.88335161	     -0.18011884	      0.95294589	      0.21557051	      2.77766570	     -2.79616547	      2.35891441	      0.90007912	      0.01570934	     14.22275610	      1.00387842	     -7.49999987	      7.26273389	    -11.73510297	     -2.69090936	      4.03633396	      0.07044732	     13.94900968	     10.20671875	     -7.49999987	     27.36757913	      1.90599421	      2.16297196	    -17.99605348	    -18.66522636	     12.35808186	      4.84794997	     62.93359001	    -22.57618478	    -13.87154560	     -6.63171086	      3.58122045	     54.27991555
      5.26666670	     -7.31376737	     -2.73687546	      5.87374589	     -0.18737242	      0.95494886	      0.21182372	      2.88556171	     -3.04202789	      2.33809716	      0.88764548	      0.01549234	     14.16209996	      1.03290674	     -7.49999987	      7.38563798	    -11.47653319	     -2.65422583	      4.10272332	      0.07160603	     14.05993195	     10.20379005	     -7.49999987	     27.49937067	      1.86319567	      2.43798789	    -17.34621091	    -18.69585211	     12.38869284	      5.02781590	     62.98631151	    -22.31185030	    -14.06608365	     -6.66517505	      3.66366653	     54.24520395
      5.28333330	     -7.46137630	     -2.54180599	      6.04213117	     -0.19313381	      0.95415015	      0.20056871	      3.19713036	     -3.49306384	      2.09344729	      0.97531466	      0.01702245	     14.16529076	      1.22538736	     -7.49999987	      7.81266908	    -11.01845590	     -2.52109950	      4.37447843	      0.07634905	     14.25893106	     10.17430762	     -7.49999987	     27.69937588	      1.58464640	      2.60674146	    -16.86699746	    -18.95759024	     14.03847441	      4.92254322	     65.45722117	    -21.87477601	    -14.21112700	     -7.24338475	      3.80938759	     53.52815848
